<mxfile host="65bd71144e">
    <diagram id="vBiA7Wb-lgVxjecOvZs5" name="Page-1">
        <mxGraphModel dx="898" dy="627" grid="1" gridSize="10" guides="1" tooltips="1" connect="1" arrows="1" fold="1" page="1" pageScale="1" pageWidth="850" pageHeight="1100" background="#ffffff" math="0" shadow="0">
            <root>
                <mxCell id="0"/>
                <mxCell id="1" parent="0"/>
                <mxCell id="170" value="KAFKA" style="rounded=1;whiteSpace=wrap;html=1;fillColor=none;strokeColor=#000000;fontColor=#000000;verticalAlign=top;" parent="1" vertex="1">
                    <mxGeometry x="80" y="240" width="240" height="470" as="geometry"/>
                </mxCell>
                <mxCell id="17" value="&lt;font color=&quot;#000000&quot; style=&quot;font-size: 16px&quot;&gt;mongodb&lt;/font&gt;" style="shape=cylinder3;whiteSpace=wrap;html=1;boundedLbl=1;backgroundOutline=1;size=15;rounded=0;glass=0;fillColor=#fa6800;fontColor=#ffffff;strokeColor=#C73500;sketch=1;" parent="1" vertex="1">
                    <mxGeometry x="570" y="760" width="100" height="80" as="geometry"/>
                </mxCell>
                <mxCell id="18" value="" style="group;sketch=1;" parent="1" vertex="1" connectable="0">
                    <mxGeometry x="420" y="380" width="120" height="100" as="geometry"/>
                </mxCell>
                <mxCell id="12" value="&lt;font color=&quot;#000000&quot; style=&quot;font-size: 16px&quot;&gt;import&lt;br&gt;gateway&lt;br&gt;&lt;/font&gt;" style="shape=hexagon;perimeter=hexagonPerimeter2;whiteSpace=wrap;html=1;fixedSize=1;strokeColor=#2D7600;fontColor=#ffffff;fillColor=#FFFFFF;sketch=1;" parent="18" vertex="1">
                    <mxGeometry x="10" y="20" width="100" height="80" as="geometry"/>
                </mxCell>
                <mxCell id="13" value="&lt;font style=&quot;font-size: 12px&quot;&gt;REST&lt;/font&gt;" style="rounded=0;whiteSpace=wrap;html=1;fillColor=#e3c800;strokeColor=#B09500;fontStyle=0;glass=0;fontColor=#000000;sketch=1;" parent="18" vertex="1">
                    <mxGeometry x="70" width="40" height="40" as="geometry"/>
                </mxCell>
                <mxCell id="14" value="&lt;font style=&quot;font-size: 12px&quot;&gt;Kafka&lt;/font&gt;" style="rounded=0;whiteSpace=wrap;html=1;fillColor=#e3c800;strokeColor=#B09500;fontStyle=0;glass=0;fontColor=#000000;sketch=1;" parent="18" vertex="1">
                    <mxGeometry x="10" width="40" height="40" as="geometry"/>
                </mxCell>
                <mxCell id="20" value="joyce_content" style="shape=step;perimeter=stepPerimeter;whiteSpace=wrap;html=1;fixedSize=1;rounded=0;glass=0;fillColor=#fa6800;strokeColor=#C73500;fontSize=14;fontColor=#000000;sketch=1;" parent="1" vertex="1">
                    <mxGeometry x="110" y="555" width="200" height="40" as="geometry"/>
                </mxCell>
                <mxCell id="24" style="edgeStyle=orthogonalEdgeStyle;curved=1;rounded=0;orthogonalLoop=1;jettySize=auto;html=1;entryX=0.75;entryY=0;entryDx=0;entryDy=0;strokeColor=#000000;fontSize=16;fontColor=#000000;sketch=1;exitX=0.625;exitY=1;exitDx=0;exitDy=0;" parent="1" source="12" target="20" edge="1">
                    <mxGeometry relative="1" as="geometry"/>
                </mxCell>
                <mxCell id="26" value="joyce_import" style="shape=step;perimeter=stepPerimeter;whiteSpace=wrap;html=1;fixedSize=1;rounded=0;glass=0;fillColor=#fa6800;strokeColor=#C73500;fontSize=14;fontColor=#000000;sketch=1;" parent="1" vertex="1">
                    <mxGeometry x="110" y="300" width="200" height="40" as="geometry"/>
                </mxCell>
                <mxCell id="44" style="edgeStyle=orthogonalEdgeStyle;curved=1;rounded=0;orthogonalLoop=1;jettySize=auto;html=1;entryX=0.5;entryY=1;entryDx=0;entryDy=0;entryPerimeter=0;strokeColor=#000000;fontSize=14;fontColor=#000000;dashed=1;sketch=1;exitX=1;exitY=0.5;exitDx=0;exitDy=0;" parent="1" source="42" target="17" edge="1">
                    <mxGeometry relative="1" as="geometry"/>
                </mxCell>
                <mxCell id="68" style="edgeStyle=orthogonalEdgeStyle;curved=1;rounded=0;orthogonalLoop=1;jettySize=auto;html=1;entryX=0.5;entryY=0;entryDx=0;entryDy=0;entryPerimeter=0;strokeColor=#000000;fontColor=#000000;sketch=1;exitX=1;exitY=0.5;exitDx=0;exitDy=0;" parent="1" source="86" target="17" edge="1">
                    <mxGeometry relative="1" as="geometry">
                        <mxPoint x="680" y="660" as="sourcePoint"/>
                    </mxGeometry>
                </mxCell>
                <mxCell id="85" value="" style="group;sketch=1;" parent="1" vertex="1" connectable="0">
                    <mxGeometry x="430" y="620" width="100" height="100" as="geometry"/>
                </mxCell>
                <mxCell id="86" value="&lt;font color=&quot;#000000&quot; style=&quot;font-size: 16px&quot;&gt;mongodb&lt;br&gt;sink&lt;br&gt;&lt;/font&gt;" style="shape=hexagon;perimeter=hexagonPerimeter2;whiteSpace=wrap;html=1;fixedSize=1;strokeColor=#2D7600;fontColor=#ffffff;fillColor=#FFFFFF;sketch=1;" parent="85" vertex="1">
                    <mxGeometry y="20" width="100" height="80" as="geometry"/>
                </mxCell>
                <mxCell id="87" value="&lt;font style=&quot;font-size: 12px&quot;&gt;Kafka&lt;/font&gt;" style="rounded=0;whiteSpace=wrap;html=1;fillColor=#e3c800;strokeColor=#B09500;fontStyle=0;glass=0;fontColor=#000000;sketch=1;" parent="85" vertex="1">
                    <mxGeometry width="40" height="40" as="geometry"/>
                </mxCell>
                <mxCell id="95" style="edgeStyle=orthogonalEdgeStyle;curved=1;rounded=0;sketch=1;orthogonalLoop=1;jettySize=auto;html=1;entryX=0.75;entryY=1;entryDx=0;entryDy=0;dashed=1;startArrow=none;startFill=0;strokeColor=#000000;fontColor=#000000;exitX=0;exitY=0.5;exitDx=0;exitDy=0;" parent="1" source="87" target="20" edge="1">
                    <mxGeometry relative="1" as="geometry">
                        <Array as="points">
                            <mxPoint x="430" y="620"/>
                            <mxPoint x="250" y="620"/>
                        </Array>
                    </mxGeometry>
                </mxCell>
                <mxCell id="108" value="joyce_notfication" style="shape=step;perimeter=stepPerimeter;whiteSpace=wrap;html=1;fixedSize=1;rounded=0;glass=0;fillColor=#fa6800;strokeColor=#C73500;fontSize=14;fontColor=#000000;sketch=1;" parent="1" vertex="1">
                    <mxGeometry x="110" y="385" width="200" height="40" as="geometry"/>
                </mxCell>
                <mxCell id="165" style="edgeStyle=orthogonalEdgeStyle;rounded=0;orthogonalLoop=1;jettySize=auto;html=1;entryX=0;entryY=0.5;entryDx=0;entryDy=0;strokeColor=#000000;curved=1;dashed=1;sketch=1;startArrow=classic;startFill=1;endArrow=none;endFill=0;exitX=-0.01;exitY=0.025;exitDx=0;exitDy=0;exitPerimeter=0;" parent="1" source="115" target="119" edge="1">
                    <mxGeometry relative="1" as="geometry">
                        <Array as="points">
                            <mxPoint x="40" y="641"/>
                            <mxPoint x="40" y="70"/>
                        </Array>
                    </mxGeometry>
                </mxCell>
                <mxCell id="115" value="nile-commands" style="shape=step;perimeter=stepPerimeter;whiteSpace=wrap;html=1;fixedSize=1;rounded=0;glass=0;fillColor=#fa6800;strokeColor=#C73500;fontSize=14;fontColor=#000000;sketch=1;" parent="1" vertex="1">
                    <mxGeometry x="110" y="640" width="200" height="40" as="geometry"/>
                </mxCell>
                <mxCell id="116" style="edgeStyle=orthogonalEdgeStyle;curved=1;rounded=0;sketch=1;orthogonalLoop=1;jettySize=auto;html=1;entryX=0.844;entryY=1;entryDx=0;entryDy=0;entryPerimeter=0;startArrow=none;startFill=0;endArrow=classic;endFill=1;strokeColor=#000000;" parent="1" source="42" target="115" edge="1">
                    <mxGeometry relative="1" as="geometry"/>
                </mxCell>
                <mxCell id="169" style="edgeStyle=orthogonalEdgeStyle;curved=1;rounded=0;sketch=1;orthogonalLoop=1;jettySize=auto;html=1;entryX=0.5;entryY=0;entryDx=0;entryDy=0;startArrow=classic;startFill=1;strokeColor=#000000;exitX=0.587;exitY=1.02;exitDx=0;exitDy=0;exitPerimeter=0;" parent="1" source="119" target="166" edge="1">
                    <mxGeometry relative="1" as="geometry"/>
                </mxCell>
                <mxCell id="119" value="&lt;font color=&quot;#000000&quot; style=&quot;font-size: 16px&quot;&gt;External&amp;nbsp;&lt;br&gt;Systems&lt;/font&gt;" style="rounded=1;whiteSpace=wrap;html=1;strokeColor=#6F0000;fillColor=#a20025;fontColor=#ffffff;sketch=1;opacity=50;spacing=13;labelBackgroundColor=#ffffff;labelBorderColor=none;spacingTop=0;" parent="1" vertex="1">
                    <mxGeometry x="80" y="20" width="680" height="100" as="geometry"/>
                </mxCell>
                <mxCell id="157" style="edgeStyle=orthogonalEdgeStyle;curved=1;rounded=0;sketch=1;orthogonalLoop=1;jettySize=auto;html=1;entryX=0.75;entryY=0;entryDx=0;entryDy=0;strokeColor=#000000;exitX=0;exitY=0.5;exitDx=0;exitDy=0;" parent="1" source="166" target="26" edge="1">
                    <mxGeometry relative="1" as="geometry">
                        <mxPoint x="413.8800000000001" y="260.96000000000004" as="sourcePoint"/>
                    </mxGeometry>
                </mxCell>
                <mxCell id="155" style="edgeStyle=orthogonalEdgeStyle;rounded=0;sketch=1;orthogonalLoop=1;jettySize=auto;html=1;exitX=0;exitY=0.5;exitDx=0;exitDy=0;entryX=0.75;entryY=1;entryDx=0;entryDy=0;dashed=1;strokeColor=#000000;curved=1;" parent="1" source="14" target="26" edge="1">
                    <mxGeometry relative="1" as="geometry">
                        <Array as="points">
                            <mxPoint x="430" y="360"/>
                            <mxPoint x="260" y="360"/>
                        </Array>
                    </mxGeometry>
                </mxCell>
                <mxCell id="159" style="edgeStyle=orthogonalEdgeStyle;curved=1;rounded=0;sketch=1;orthogonalLoop=1;jettySize=auto;html=1;strokeColor=#B3B3B3;" parent="1" source="12" target="108" edge="1">
                    <mxGeometry relative="1" as="geometry">
                        <mxPoint x="690" y="500" as="targetPoint"/>
                        <Array as="points">
                            <mxPoint x="390" y="440"/>
                            <mxPoint x="390" y="405"/>
                        </Array>
                    </mxGeometry>
                </mxCell>
                <mxCell id="160" style="edgeStyle=orthogonalEdgeStyle;curved=1;rounded=0;sketch=1;orthogonalLoop=1;jettySize=auto;html=1;entryX=1;entryY=0.5;entryDx=0;entryDy=0;strokeColor=#B3B3B3;exitX=0;exitY=0.5;exitDx=0;exitDy=0;" parent="1" source="86" target="108" edge="1">
                    <mxGeometry relative="1" as="geometry">
                        <mxPoint x="430" y="630" as="sourcePoint"/>
                        <Array as="points">
                            <mxPoint x="400" y="680"/>
                            <mxPoint x="400" y="405"/>
                        </Array>
                    </mxGeometry>
                </mxCell>
                <mxCell id="177" style="edgeStyle=orthogonalEdgeStyle;curved=1;rounded=0;orthogonalLoop=1;jettySize=auto;html=1;startArrow=none;startFill=0;strokeColor=#000000;" edge="1" parent="1" source="161">
                    <mxGeometry relative="1" as="geometry">
                        <mxPoint x="500" y="940" as="targetPoint"/>
                    </mxGeometry>
                </mxCell>
                <mxCell id="161" value="&lt;font color=&quot;#000000&quot;&gt;&lt;span style=&quot;font-size: 16px&quot;&gt;Clients&lt;/span&gt;&lt;/font&gt;" style="rounded=1;whiteSpace=wrap;html=1;strokeColor=#6F0000;fillColor=#a20025;fontColor=#ffffff;sketch=1;opacity=50;spacing=13;labelBackgroundColor=#ffffff;labelBorderColor=none;spacingTop=0;" parent="1" vertex="1">
                    <mxGeometry x="80" y="980" width="680" height="100" as="geometry"/>
                </mxCell>
                <mxCell id="162" value="" style="group" parent="1" vertex="1" connectable="0">
                    <mxGeometry x="430" y="820" width="120" height="120" as="geometry"/>
                </mxCell>
                <mxCell id="141" value="" style="shape=hexagon;perimeter=hexagonPerimeter2;whiteSpace=wrap;html=1;fixedSize=1;strokeColor=#2D7600;fontColor=#ffffff;fillColor=#FFFFFF;sketch=1;" parent="162" vertex="1">
                    <mxGeometry width="100" height="80" as="geometry"/>
                </mxCell>
                <mxCell id="142" value="" style="shape=hexagon;perimeter=hexagonPerimeter2;whiteSpace=wrap;html=1;fixedSize=1;strokeColor=#2D7600;fontColor=#ffffff;fillColor=#FFFFFF;sketch=1;" parent="162" vertex="1">
                    <mxGeometry x="10" y="10" width="100" height="80" as="geometry"/>
                </mxCell>
                <mxCell id="42" value="&lt;font color=&quot;#000000&quot; style=&quot;font-size: 16px&quot;&gt;rest&lt;br&gt;&lt;/font&gt;" style="shape=hexagon;perimeter=hexagonPerimeter2;whiteSpace=wrap;html=1;fixedSize=1;strokeColor=#2D7600;fontColor=#ffffff;fillColor=#FFFFFF;sketch=1;" parent="162" vertex="1">
                    <mxGeometry x="20" y="20" width="100" height="80" as="geometry"/>
                </mxCell>
                <mxCell id="43" value="&lt;font style=&quot;font-size: 12px&quot;&gt;REST&lt;/font&gt;" style="rounded=0;whiteSpace=wrap;html=1;fillColor=#e3c800;strokeColor=#B09500;fontStyle=0;glass=0;fontColor=#000000;sketch=1;" parent="162" vertex="1">
                    <mxGeometry x="20" y="80" width="40" height="40" as="geometry"/>
                </mxCell>
                <mxCell id="54" value="&lt;font style=&quot;font-size: 12px&quot;&gt;json&lt;br&gt;RPC&lt;br&gt;&lt;/font&gt;" style="rounded=0;whiteSpace=wrap;html=1;fillColor=#e3c800;strokeColor=#B09500;fontStyle=0;glass=0;fontColor=#000000;sketch=1;" parent="162" vertex="1">
                    <mxGeometry x="80" y="80" width="40" height="40" as="geometry"/>
                </mxCell>
                <mxCell id="173" value="&lt;font style=&quot;font-size: 9px&quot;&gt;GraphQL&lt;/font&gt;" style="rounded=0;whiteSpace=wrap;html=1;fillColor=#e3c800;strokeColor=#B09500;fontStyle=0;glass=0;fontColor=#000000;sketch=1;" parent="162" vertex="1">
                    <mxGeometry x="20" width="40" height="40" as="geometry"/>
                </mxCell>
                <mxCell id="166" value="&lt;font color=&quot;#000000&quot; style=&quot;font-size: 16px&quot;&gt;Kafka&lt;br&gt;Connect&lt;br&gt;&lt;/font&gt;" style="shape=hexagon;perimeter=hexagonPerimeter2;whiteSpace=wrap;html=1;fixedSize=1;strokeColor=#C73500;fontColor=#ffffff;fillColor=#fa6800;sketch=1;flipH=1;" parent="1" vertex="1">
                    <mxGeometry x="430" y="240" width="100" height="80" as="geometry"/>
                </mxCell>
                <mxCell id="167" value="&lt;font color=&quot;#000000&quot; style=&quot;font-size: 16px&quot;&gt;mongodb&lt;br&gt;&lt;/font&gt;" style="shape=hexagon;perimeter=hexagonPerimeter2;whiteSpace=wrap;html=1;fixedSize=1;strokeColor=#C73500;fontColor=#ffffff;fillColor=#fa6800;sketch=1;flipH=1;" parent="1" vertex="1">
                    <mxGeometry x="540" y="500" width="100" height="80" as="geometry"/>
                </mxCell>
                <mxCell id="168" style="edgeStyle=orthogonalEdgeStyle;rounded=0;orthogonalLoop=1;jettySize=auto;html=1;entryX=0.5;entryY=0;entryDx=0;entryDy=0;curved=1;strokeColor=#000000;sketch=1;startArrow=classic;startFill=1;" parent="1" source="12" target="167" edge="1">
                    <mxGeometry relative="1" as="geometry"/>
                </mxCell>
                <mxCell id="171" value="joyce_schema" style="shape=step;perimeter=stepPerimeter;whiteSpace=wrap;html=1;fixedSize=1;rounded=0;glass=0;fillColor=#fa6800;strokeColor=#C73500;fontSize=14;fontColor=#000000;sketch=1;" parent="1" vertex="1">
                    <mxGeometry x="110" y="470" width="200" height="40" as="geometry"/>
                </mxCell>
                <mxCell id="172" style="edgeStyle=orthogonalEdgeStyle;rounded=0;orthogonalLoop=1;jettySize=auto;html=1;entryX=0.75;entryY=0;entryDx=0;entryDy=0;curved=1;strokeColor=#000000;sketch=1;exitX=0.375;exitY=1;exitDx=0;exitDy=0;" parent="1" source="12" target="171" edge="1">
                    <mxGeometry relative="1" as="geometry"/>
                </mxCell>
                <mxCell id="174" style="edgeStyle=orthogonalEdgeStyle;rounded=0;orthogonalLoop=1;jettySize=auto;html=1;entryX=0.5;entryY=1;entryDx=0;entryDy=0;strokeColor=#000000;startArrow=classic;startFill=1;" edge="1" parent="1" source="12" target="166">
                    <mxGeometry relative="1" as="geometry">
                        <mxPoint x="480" y="340" as="targetPoint"/>
                    </mxGeometry>
                </mxCell>
                <mxCell id="176" style="edgeStyle=orthogonalEdgeStyle;rounded=0;orthogonalLoop=1;jettySize=auto;html=1;entryX=1;entryY=0.5;entryDx=0;entryDy=0;startArrow=none;startFill=0;strokeColor=#000000;curved=1;exitX=0.5;exitY=1;exitDx=0;exitDy=0;" edge="1" parent="1" source="175" target="13">
                    <mxGeometry relative="1" as="geometry"/>
                </mxCell>
                <mxCell id="175" value="&lt;font color=&quot;#000000&quot;&gt;&lt;span style=&quot;font-size: 16px&quot;&gt;Admin&lt;br&gt;users&lt;br&gt;&lt;/span&gt;&lt;/font&gt;" style="rounded=1;whiteSpace=wrap;html=1;strokeColor=#6F0000;fillColor=#a20025;fontColor=#ffffff;sketch=1;opacity=50;spacing=13;labelBackgroundColor=#ffffff;labelBorderColor=none;spacingTop=0;" vertex="1" parent="1">
                    <mxGeometry x="620" y="240" width="180" height="80" as="geometry"/>
                </mxCell>
            </root>
        </mxGraphModel>
    </diagram>
</mxfile>